<?xml version="1.0"?>
<svg width="72" height="4.5" xmlns="http://www.w3.org/2000/svg" xmlns:svg="http://www.w3.org/2000/svg" enable-background="new 0 0 100 100" version="1.1" xml:space="preserve">
 <g class="layer">
  <title>Layer 1</title>
  <path d="m72.09978,2.11328c0,-0.28 -0.499,-0.816 -1.462,-0.943c0.181,-0.454 0.06,-0.859 -0.119,-0.998c-0.29,-0.225 -1.341,-0.331 -2.221,0.353c-0.445,0.346 -0.745,0.737 -0.871,1.088l-62.751,0c-0.125,-0.353 -0.425,-0.746 -0.872,-1.094c-0.88,-0.684 -1.947,-0.566 -2.221,-0.353c-0.19,0.148 -0.308,0.552 -0.121,1.005c-0.962,0.131 -1.46,0.679 -1.46,0.942c0,0.28 0.499,0.816 1.462,0.943c-0.181,0.454 -0.06,0.859 0.119,0.998c0.29,0.226 1.341,0.331 2.221,-0.353c0.445,-0.346 0.745,-0.737 0.871,-1.088l62.752,0c0.125,0.353 0.425,0.746 0.872,1.094c0.88,0.684 1.947,0.565 2.221,0.353c0.19,-0.148 0.308,-0.552 0.121,-1.005c0.961,-0.131 1.459,-0.679 1.459,-0.942z" id="svg_1"/>
 </g>

</svg>